<svg xmlns="http://www.w3.org/2000/svg" width="170.35" height="172.59" viewBox="0 0 170.35 172.59">
    <title>Logo La Plagne</title>
    <g><g>
        <path d="M108.65,96.63c-2.38-.29-2.83-.74-3.12-3.12a.29.29,0,0,0-.58,0c-.29,2.38-.74,2.83-3.12,3.12a.29.29,0,0,0,0,.58c2.38.29,2.83.74,3.12,3.12a.29.29,0,0,0,.58,0c.29-2.38.74-2.83,3.12-3.12A.29.29,0,0,0,108.65,96.63Z" fill="none"/>
        <path d="M78.53,96.63c-2.39-.29-2.84-.74-3.12-3.12a.3.3,0,0,0-.59,0c-.28,2.38-.73,2.83-3.12,3.12a.29.29,0,0,0,0,.58c2.39.29,2.84.74,3.12,3.12a.3.3,0,0,0,.59,0c.28-2.38.73-2.83,3.12-3.12A.29.29,0,0,0,78.53,96.63Z" fill="none"/>
        <path d="M97.09,90.47a12.12,12.12,0,0,0-6,1.22,11.85,11.85,0,0,1-5.84,1.2,11.85,11.85,0,0,1-5.84-1.2,12.12,12.12,0,0,0-6-1.22c-4.67,0-15.54.53-15.54,5.45,0,2.88,1.94,13.63,11.45,13.63,8.37,0,10.66-5.55,12.34-9.6,1-2.45,1.82-4.39,3.58-4.39s2.57,1.94,3.59,4.39c1.67,4,4,9.6,12.33,9.6,9.52,0,11.46-10.75,11.46-13.63C112.64,91,101.77,90.47,97.09,90.47ZM78.53,97.21c-2.39.29-2.84.74-3.12,3.12a.3.3,0,0,1-.59,0c-.28-2.38-.73-2.83-3.12-3.12a.29.29,0,0,1,0-.58c2.39-.29,2.84-.74,3.12-3.12a.3.3,0,0,1,.59,0c.28,2.38.73,2.83,3.12,3.12A.29.29,0,0,1,78.53,97.21Zm30.12,0c-2.38.29-2.83.74-3.12,3.12a.29.29,0,0,1-.58,0c-.29-2.38-.74-2.83-3.12-3.12a.29.29,0,0,1,0-.58c2.38-.29,2.83-.74,3.12-3.12a.29.29,0,0,1,.58,0c.29,2.38.74,2.83,3.12,3.12A.29.29,0,0,1,108.65,97.21Z"/>
        <path d="M75.92,112.16a9.57,9.57,0,0,0,18.69,0,17,17,0,0,1-18.69,0Z" fill="#e40521"/>
        <path d="M110.71,68.81h0C108.07,40.23,99,19.17,87.82,16.34A8.72,8.72,0,0,0,94,8c0-4.81-3.91-8-8.73-8s-8.72,3.19-8.72,8a8.74,8.74,0,0,0,6.15,8.34c-11.14,2.75-20.23,23.2-22.88,51.77,3.54-.69,12-2,25.48-2A115.68,115.68,0,0,1,106.63,68c-3.46-.48-7.19-.63-10.43-.8a122.48,122.48,0,0,0-33.85,2.85,12.87,12.87,0,0,0-4.22,1.64c-2.73,1.92-3.58,16.45.59,16.45a162.76,162.76,0,0,1,42.46-1.53c3.18.31,6.31.88,9.47,1.3,2.38.33,2.88-1.26,3.39-3.5C114.84,80.87,115.15,70.36,110.71,68.81Z" fill="#e40521"/>
        <path d="M5.62,130.52v16.85h6.73v4.76H0V130.52Z"/>
        <path d="M29.38,148.37h-8l-1.29,3.76h-6l8.23-21.61h6.13l8.23,21.61h-6Zm-1.49-4.27-2.53-7.19-2.52,7.19Z"/>
        <path d="M54.48,152.13H48.86V130.52h9a7.65,7.65,0,0,1,5.57,1.89,8.29,8.29,0,0,1,0,10.66A7.65,7.65,0,0,1,57.81,145H54.48Zm0-11.7h1.86c2.07,0,3.1-.9,3.1-2.69s-1-2.7-3.1-2.7H54.48Z"/>
        <path d="M73.91,130.52v16.85h6.74v4.76H68.3V130.52Z"/>
        <path d="M97.67,148.37h-8l-1.29,3.76h-6l8.22-21.61h6.14L105,152.13H99Zm-1.49-4.27-2.52-7.19-2.52,7.19Z"/>
        <path d="M117.25,140H128.4a29.39,29.39,0,0,1-.15,3.12,10.8,10.8,0,0,1-2.2,5.61,9.7,9.7,0,0,1-2.43,2.18,11.47,11.47,0,0,1-3.05,1.33,13.32,13.32,0,0,1-3.5.46,12.39,12.39,0,0,1-4.6-.83,10.3,10.3,0,0,1-5.88-6,12.51,12.51,0,0,1-.84-4.66,12.83,12.83,0,0,1,.82-4.63,10.25,10.25,0,0,1,2.32-3.59,10.59,10.59,0,0,1,3.63-2.33,12.93,12.93,0,0,1,4.73-.83,11.67,11.67,0,0,1,5.93,1.47,10.08,10.08,0,0,1,4,4.52l-5.33,2.21a5.5,5.5,0,0,0-1.93-2.55,4.85,4.85,0,0,0-2.71-.77,5.41,5.41,0,0,0-2.3.47,4.92,4.92,0,0,0-1.76,1.35,6.43,6.43,0,0,0-1.15,2.1,8.77,8.77,0,0,0-.41,2.75A8.64,8.64,0,0,0,112,144a5.68,5.68,0,0,0,1.07,2,4.82,4.82,0,0,0,1.78,1.33,5.93,5.93,0,0,0,2.46.47,7.09,7.09,0,0,0,1.61-.18,4.57,4.57,0,0,0,1.39-.6,3.52,3.52,0,0,0,1-1.08,4.5,4.5,0,0,0,.54-1.6h-4.61Z"/>
        <path d="M132,152.13V130.52h5.62l10.37,13.21V130.52h5.59v21.61h-5.59l-10.37-13.22v13.22Z"/>
        <path d="M170.35,135.27h-6.67v3.61H170v4.76h-6.3v3.73h6.67v4.76H158.06V130.52h12.29Z"/>
        <path d="M78.53,97.21c-2.39.29-2.84.74-3.12,3.12a.3.3,0,0,1-.59,0c-.28-2.38-.73-2.83-3.12-3.12a.29.29,0,0,1,0-.58c2.39-.29,2.84-.74,3.12-3.12a.3.3,0,0,1,.59,0c.28,2.38.73,2.83,3.12,3.12A.29.29,0,0,1,78.53,97.21Z" fill="#fff"/>
        <path d="M108.65,97.21c-2.38.29-2.83.74-3.12,3.12a.29.29,0,0,1-.58,0c-.29-2.38-.74-2.83-3.12-3.12a.29.29,0,0,1,0-.58c2.38-.29,2.83-.74,3.12-3.12a.29.29,0,0,1,.58,0c.29,2.38.74,2.83,3.12,3.12A.29.29,0,0,1,108.65,97.21Z" fill="#fff"/>
        <path d="M56.3,159.36a18.31,18.31,0,0,0-5,.5.19.19,0,0,0-.15.19v12.11a.21.21,0,0,0,.2.21h.78a.21.21,0,0,0,.2-.21v-4.59H56c3.62,0,4.72-1,4.72-4.14C60.68,160.69,59.25,159.36,56.3,159.36ZM56,166.5H52.29v-5.67a19.07,19.07,0,0,1,4.05-.35c2.14,0,3.17,1,3.17,3C59.51,165.85,58.75,166.5,56,166.5Z" fill="#1d1d1b"/>
        <path d="M66.36,162.68a21,21,0,0,0-4.53.57.22.22,0,0,0-.16.24l.12.6a.2.2,0,0,0,.09.13.23.23,0,0,0,.16,0,19.29,19.29,0,0,1,4.32-.52c1.27,0,1.86.6,1.86,1.88v.89c-.34,0-.78-.05-1.25-.05a19.2,19.2,0,0,0-3.28.26,2.79,2.79,0,0,0-2.51,3,2.72,2.72,0,0,0,2.9,2.9,7.94,7.94,0,0,0,5.22-1.9.21.21,0,0,0,.07-.15v-4.85C69.37,163.66,68.39,162.68,66.36,162.68Zm1.86,7.5a6.63,6.63,0,0,1-4.07,1.36,1.7,1.7,0,0,1-1.82-1.88,1.82,1.82,0,0,1,1.66-2,16.94,16.94,0,0,1,3-.25c.45,0,.87,0,1.22,0Z" fill="#1d1d1b"/>
        <path d="M76.24,162.84a11.7,11.7,0,0,0-4.69,1.28.19.19,0,0,0-.1.17v7.87a.21.21,0,0,0,.2.21h.76a.22.22,0,0,0,.21-.21v-7.38a10.29,10.29,0,0,1,3.65-.89.21.21,0,0,0,.19-.2V163a.23.23,0,0,0-.07-.15A.21.21,0,0,0,76.24,162.84Z" fill="#1d1d1b"/>
        <path d="M82,162.68a21.11,21.11,0,0,0-4.53.57.21.21,0,0,0-.15.24l.11.6a.3.3,0,0,0,.09.13.23.23,0,0,0,.16,0,19.29,19.29,0,0,1,4.32-.52c1.27,0,1.86.6,1.86,1.88v.89c-.34,0-.77-.05-1.25-.05a19.34,19.34,0,0,0-3.28.26,2.79,2.79,0,0,0-2.51,3,2.72,2.72,0,0,0,2.91,2.9,7.93,7.93,0,0,0,5.21-1.9.21.21,0,0,0,.07-.15v-4.85C85,163.66,84,162.68,82,162.68Zm1.86,7.5a6.62,6.62,0,0,1-4.06,1.36A1.7,1.7,0,0,1,78,169.66a1.82,1.82,0,0,1,1.66-2,17.06,17.06,0,0,1,3-.25c.45,0,.86,0,1.21,0Z" fill="#1d1d1b"/>
        <path d="M94.5,159.1h-.76a.2.2,0,0,0-.21.2v4.16a8.16,8.16,0,0,0-3.53-.78c-2.3,0-3.57,1.81-3.57,5.09,0,3.11,1.18,4.82,3.34,4.82a7,7,0,0,0,4.87-1.76.2.2,0,0,0,.06-.15V159.3A.2.2,0,0,0,94.5,159.1Zm-1,11.2a5.66,5.66,0,0,1-3.72,1.24c-1.84,0-2.23-2.06-2.23-3.78,0-2.71.87-4,2.67-4a6.59,6.59,0,0,1,3.28.85Z" fill="#1d1d1b"/>
        <path d="M97,162.94h.76a.2.2,0,0,1,.2.2v9a.2.2,0,0,1-.2.2H97a.21.21,0,0,1-.21-.21v-9A.2.2,0,0,1,97,162.94Z" fill="#1d1d1b"/>
        <path d="M97.79,159.1H97a.2.2,0,0,0-.21.2v1.92a.2.2,0,0,0,.21.2h.79a.2.2,0,0,0,.2-.2V159.3A.2.2,0,0,0,97.79,159.1Z" fill="#1c181d"/>
        <path d="M105.35,167.4a9.2,9.2,0,0,0-1.91-.38l-.7-.1a2.53,2.53,0,0,1-1.65-.67c-.33-.39-.35-.84-.35-1.79a5.09,5.09,0,0,1,2.77-.73,9.86,9.86,0,0,1,2.65.38.2.2,0,0,0,.17,0,.18.18,0,0,0,.09-.16l0-.66a.2.2,0,0,0-.14-.21,10.18,10.18,0,0,0-2.82-.38,6.2,6.2,0,0,0-3.86,1.2.23.23,0,0,0-.07.15,4.32,4.32,0,0,0,.66,2.95,3.21,3.21,0,0,0,2,1,8.92,8.92,0,0,0,1,.14,5.63,5.63,0,0,1,1.87.43,1.11,1.11,0,0,1,.66,1.1c0,1.3-1,1.9-3,1.9a12.06,12.06,0,0,1-2.8-.31.21.21,0,0,0-.17,0,.19.19,0,0,0-.09.14l-.06.65a.19.19,0,0,0,.15.22,13.29,13.29,0,0,0,3,.31c3.51,0,4.25-1.59,4.25-2.93A2.26,2.26,0,0,0,105.35,167.4Z" fill="#1d1d1b"/>
        <path d="M113,167.09a15.41,15.41,0,0,0,3.17-3.85.18.18,0,0,0,0-.2.21.21,0,0,0-.18-.1h-.87a.21.21,0,0,0-.18.1,13.87,13.87,0,0,1-3,3.65h-2.12V159.3a.21.21,0,0,0-.21-.2h-.76a.2.2,0,0,0-.2.2v12.86a.21.21,0,0,0,.2.21h.76a.22.22,0,0,0,.21-.21v-4.53H112a22.79,22.79,0,0,1,3.39,4.63.19.19,0,0,0,.18.11h.9a.21.21,0,0,0,.2-.21.17.17,0,0,0-.06-.14A30.52,30.52,0,0,0,113,167.09Z" fill="#1d1d1b"/>
        <path d="M118.25,159.1h.8a.2.2,0,0,1,.2.2v1.92a.2.2,0,0,1-.2.2h-.79a.21.21,0,0,1-.21-.21V159.3A.2.2,0,0,1,118.25,159.1Z" fill="#1c181d"/>
        <path d="M118.26,162.94H119a.21.21,0,0,1,.21.21v9a.2.2,0,0,1-.2.2h-.76a.2.2,0,0,1-.2-.2v-9A.2.2,0,0,1,118.26,162.94Z" fill="#1d1d1b"/>
    </g></g>
</svg>